<svg xmlns="http://www.w3.org/2000/svg" xmlns:xlink="http://www.w3.org/1999/xlink" viewBox="0 0 538.28 741.99"><defs><style>.cls-1,.cls-2{stroke:#000;stroke-miterlimit:10;stroke-width:6px;}.cls-1{fill:url(#未命名的渐变_71);}.cls-2{fill:url(#未命名的渐变_70);}</style><linearGradient id="未命名的渐变_71" x1="161.47" y1="86.4" x2="492.5" y2="659.77" gradientUnits="userSpaceOnUse"><stop offset="0" stop-color="#ff6400"/><stop offset="0.08" stop-color="#ee6211"/><stop offset="0.23" stop-color="#c35c3c"/><stop offset="0.43" stop-color="#7d5382"/><stop offset="0.69" stop-color="#1e46e1"/><stop offset="0.77" stop-color="#0042ff"/></linearGradient><linearGradient id="未命名的渐变_70" x1="-2.95" y1="431.4" x2="414.08" y2="319.66" gradientUnits="userSpaceOnUse"><stop offset="0.15" stop-color="#ff6400"/><stop offset="0.23" stop-color="#ee6211"/><stop offset="0.38" stop-color="#c35c3c"/><stop offset="0.59" stop-color="#7d5382"/><stop offset="0.85" stop-color="#1e46e1"/><stop offset="0.92" stop-color="#0042ff"/></linearGradient></defs><title>资源 2</title><g id="图层_2" data-name="图层 2"><g id="图层_1-2" data-name="图层 1"><path class="cls-1" d="M535.06,388.2c-2,74.07-15,145.87-46.62,213.49-16,34.24-36.31,65.59-64.1,91.62-23.63,22.13-50.74,37.63-83,43.1-11,1.86-22.08,1.37-33.12,1.88a486.19,486.19,0,0,1-66.2-.9c30.8-9.72,55.78-28,77.21-51.52,24.41-26.75,42.51-57.56,56.76-90.66,17.29-40.15,28.52-82,35.19-125.24,5.63-36.48,8.77-73.18,7.22-110-2-46.7-12.13-91.38-38.82-130.91-9.52-14.11-21.13-26.21-36.15-34.61-28.31-15.86-56.87-10.43-80.59,9.89-25.61,22-39.36,51.17-49,82.65-10.22,33.33-13.66,67.61-11.88,102.24,2.22,43.29,11.46,84.85,34.37,122.46A143.11,143.11,0,0,0,263.54,544a66,66,0,0,1-28.75,12.91c-23.27,4.18-42.33-4.61-58.85-19.94-21.59-20-34.07-45.68-42.68-73.24A293.61,293.61,0,0,1,120.64,357c1.13-17.91,1.54-35.85,3.51-53.73,4.6-41.63,13.4-82.3,27.44-121.77,13.54-38,31.28-73.89,56.88-105.4C231.37,47.9,258.3,25,294,14.69c27.15-7.8,53.35-5.6,79.95,5.08,45,18.08,73.72,52.61,97.55,92.26,26.22,43.62,41.79,91.36,51.82,141.07A599.3,599.3,0,0,1,535.06,388.2Z"/><path class="cls-2" d="M417.18,372.76c-1,53.86-6.6,107.27-21.47,159.34-13.56,47.44-32.44,92.42-62.56,131.95-20.5,26.89-44.69,49.73-76.64,62.45-44,17.52-85.17,10.22-123.32-16.56C101.94,688,79.55,658.3,61.38,625.25c-24.22-44.07-39-91.42-48.29-140.7A601.89,601.89,0,0,1,3.5,349.21c2.92-74.33,17.7-145.95,52.62-212.36C77.4,96.39,104.89,61,143.68,35.53A173.1,173.1,0,0,1,217.25,8.4c29.55-3.9,59.14-6,88.94-5.24a59.2,59.2,0,0,1,13.62,1.63c-42.47,4.5-75.13,26.38-102.55,57.05-41.13,46-64.15,101.24-79.77,160-8.32,31.34-13.37,63.3-16.23,95.57-2.06,23.13-3.48,46.4-2.23,69.6,2.34,43.62,11.21,85.62,34.33,123.53,10,16.44,22.29,30.88,39.16,40.73,26.84,15.69,57.62,12.4,81.18-8,25-21.63,39.29-49.7,48.92-80.51,11.48-36.72,15-74.34,12.25-112.7-2.57-35.33-10.23-69.24-26.15-101.07-8.68-17.35-19.8-32.86-35-45.88,12.34-9,25.59-14.14,41-13.82,19.93.4,35.53,9.61,49.13,23.1,20.4,20.23,32.07,45.42,40.61,72.31A272.66,272.66,0,0,1,417.18,372.76Z"/></g></g></svg>